<svg xmlns="http://www.w3.org/2000/svg" fill="none" viewBox="0 0 24 25" class="injected-svg" data-src="https://static.elfsight.com/icons/app-all-in-one-reviews-icons-tripadvisor-multicolor.svg" xmlns:xlink="http://www.w3.org/1999/xlink"><circle cx="12" cy="12.5" r="10" fill="#34E0A1"></circle><path fill="#000" d="m18.167 10.528 1.194-1.306h-2.667A8.236 8.236 0 0 0 12 7.778c-1.75 0-3.361.528-4.694 1.444H4.639l1.194 1.306c-.75.666-1.194 1.639-1.194 2.722a3.663 3.663 0 0 0 3.667 3.667c.972 0 1.833-.362 2.5-.973L12 17.222l1.167-1.278a3.652 3.652 0 0 0 2.5.973 3.663 3.663 0 0 0 3.666-3.667 3.584 3.584 0 0 0-1.166-2.722Zm-9.834 5.194a2.49 2.49 0 0 1-2.5-2.5 2.49 2.49 0 0 1 2.5-2.5 2.49 2.49 0 0 1 2.5 2.5c-.027 1.39-1.139 2.5-2.5 2.5ZM12 13.167c0-1.64-1.194-3.056-2.75-3.64A7.049 7.049 0 0 1 12 8.973a6.95 6.95 0 0 1 2.75.556c-1.556.61-2.75 2-2.75 3.639Zm3.667 2.555a2.49 2.49 0 0 1-2.5-2.5 2.49 2.49 0 0 1 2.5-2.5 2.49 2.49 0 0 1 2.5 2.5 2.49 2.49 0 0 1-2.5 2.5Zm0-3.778c-.723 0-1.306.584-1.306 1.306a1.304 1.304 0 1 0 2.611 0c0-.722-.583-1.306-1.305-1.306ZM9.639 13.25c0 .722-.583 1.306-1.306 1.306a1.304 1.304 0 0 1-1.305-1.306 1.304 1.304 0 1 1 2.611 0Z"></path></svg>