<svg xmlns="http://www.w3.org/2000/svg" viewBox="0 0 28 26" style="display:block!important;width:18px!important;height:18px!important;fill:currentColor!important"><path d="M14.98.15c7.035.248 12.559 6.206 12.313 13.284-.246 7.077-6.169 12.633-13.203 12.386-7.035-.247-12.558-6.206-12.313-13.283.012-.34.029-.678.068-1.011.02-.17.283-1.455 1.431-1.302.861.115 1.133.873 1.07 1.45-.012.111-.037.404-.037.404-.016.181-.027.364-.034.547-.197 5.691 4.245 10.483 9.902 10.682 5.657.199 10.42-4.27 10.618-9.961.198-5.692-4.244-10.483-9.901-10.682a10.224 10.224 0 00-1.514.059l-.37.049s-1.48.246-1.809-.76c-.319-.972.426-1.535.93-1.64.92-.178 1.875-.256 2.85-.221zM1.412 1.162c.12 0 .231.033.328.09l13.466 6.944.119.061.05.026v.001c1.204.66 2 1.796 2 3.088l-.001.028.001 4.954v.786l.002.016a.66.66 0 01-.655.665.644.644 0 01-.307-.078l-3.129-1.583c-1.264-.596-2.124-1.72-2.136-3.01 0-.968-.153-2.093-1.693-3.427-.79-.685-1.708-1.483-2.642-2.297l-.701-.612a3239.267 3239.267 0 01-5.145-4.5l-.01-.008-.068-.079a.667.667 0 01.521-1.065z"></path></svg>